<svg width="51" height="51" viewBox="0 0 51 51" fill="none" xmlns="http://www.w3.org/2000/svg">
    <path d="M25.7593 45.5363C36.8507 45.5363 45.8419 36.545 45.8419 25.4537C45.8419 14.3624 36.8507 5.37109 25.7593 5.37109C14.668 5.37109 5.67676 14.3624 5.67676 25.4537C5.67676 36.545 14.668 45.5363 25.7593 45.5363Z" fill="#7392E1" fill-opacity="0.22"/>
    <path fill-rule="evenodd" clip-rule="evenodd" d="M25.7593 2.36809C12.9893 2.36809 2.63615 12.7212 2.63615 25.4912C2.63615 38.2612 12.9893 48.6143 25.7593 48.6143C30.1958 48.6143 34.344 47.3524 37.8819 45.1863C38.3239 44.9157 38.9016 45.0547 39.1722 45.4967C39.4429 45.9387 39.3039 46.5164 38.8619 46.787C35.0424 49.1255 30.557 50.4912 25.7593 50.4912C11.9527 50.4912 0.759277 39.2978 0.759277 25.4912C0.759277 11.6846 11.9527 0.491211 25.7593 0.491211C30.3205 0.491211 34.5737 1.70056 38.279 3.84572C38.7276 4.1054 38.8807 4.67952 38.621 5.12806C38.3613 5.5766 37.7872 5.7297 37.3386 5.47002C33.9118 3.48605 29.9819 2.36809 25.7593 2.36809Z" fill="#ACBFEB"/>
    <path fill-rule="evenodd" clip-rule="evenodd" d="M46.0409 12.4456C46.4873 12.1824 47.0626 12.331 47.3258 12.7775C49.512 16.486 50.7591 20.8545 50.7591 25.4537C50.7591 30.9901 48.9648 36.1014 45.9219 40.2366C45.6147 40.6541 45.0273 40.7435 44.6098 40.4363C44.1924 40.1291 44.103 39.5417 44.4102 39.1243C47.2231 35.3016 48.8823 30.578 48.8823 25.4537C48.8823 21.1941 47.7271 17.1541 45.709 13.7306C45.4458 13.2841 45.5944 12.7088 46.0409 12.4456Z" fill="#ACBFEB"/>
    <path d="M30.6062 22.0449C29.7195 21.6316 28.7595 21.3316 27.7595 21.1582C27.7508 21.158 27.742 21.1596 27.734 21.1631C27.7259 21.1665 27.7187 21.1717 27.7129 21.1782C27.5929 21.3982 27.4529 21.6849 27.3595 21.9049C26.2989 21.7449 25.2202 21.7449 24.1595 21.9049C24.0662 21.6782 23.9262 21.3982 23.7995 21.1782C23.7929 21.1649 23.7729 21.1582 23.7529 21.1582C22.7529 21.3316 21.7995 21.6316 20.9062 22.0449C20.8995 22.0449 20.8929 22.0516 20.8862 22.0582C19.0729 24.7716 18.5729 27.4116 18.8195 30.0249C18.8195 30.0382 18.8262 30.0516 18.8395 30.0582C20.0395 30.9382 21.1929 31.4716 22.3329 31.8249C22.3529 31.8316 22.3729 31.8249 22.3795 31.8116C22.6462 31.4449 22.8862 31.0582 23.0929 30.6516C23.1062 30.6249 23.0929 30.5982 23.0662 30.5916C22.6862 30.4449 22.3262 30.2716 21.9729 30.0716C21.9462 30.0582 21.9462 30.0182 21.9662 29.9982C22.0395 29.9449 22.1129 29.8849 22.1862 29.8316C22.1995 29.8182 22.2195 29.8182 22.2329 29.8249C24.5262 30.8716 26.9995 30.8716 29.2662 29.8249C29.2795 29.8182 29.2995 29.8182 29.3129 29.8316C29.3862 29.8916 29.4595 29.9449 29.5329 30.0049C29.5595 30.0249 29.5595 30.0649 29.5262 30.0782C29.1795 30.2849 28.8129 30.4516 28.4329 30.5982C28.4062 30.6049 28.3995 30.6382 28.4062 30.6582C28.6195 31.0649 28.8595 31.4516 29.1195 31.8182C29.1395 31.8249 29.1595 31.8316 29.1795 31.8249C30.3262 31.4716 31.4795 30.9382 32.6795 30.0582C32.6928 30.0516 32.6995 30.0382 32.6995 30.0249C32.9929 27.0049 32.2128 24.3849 30.6328 22.0582C30.6262 22.0516 30.6195 22.0449 30.6062 22.0449ZM23.4395 28.4316C22.7529 28.4316 22.1795 27.7982 22.1795 27.0182C22.1795 26.2382 22.7395 25.6049 23.4395 25.6049C24.1462 25.6049 24.7062 26.2449 24.6995 27.0182C24.6995 27.7982 24.1395 28.4316 23.4395 28.4316ZM28.0862 28.4316C27.3995 28.4316 26.8262 27.7982 26.8262 27.0182C26.8262 26.2382 27.3862 25.6049 28.0862 25.6049C28.7929 25.6049 29.3529 26.2449 29.3462 27.0182C29.3462 27.7982 28.7929 28.4316 28.0862 28.4316Z" fill="#ACBFEB"/>
</svg>
