<svg width="51" height="51" viewBox="0 0 51 51" fill="none" xmlns="http://www.w3.org/2000/svg">
    <path d="M25.7592 45.5363C14.6679 45.5363 5.67661 36.545 5.67661 25.4537C5.67661 14.3624 14.6679 5.37109 25.7592 5.37109C36.8505 5.37109 45.8418 14.3624 45.8418 25.4537C45.8418 36.545 36.8505 45.5363 25.7592 45.5363Z" fill="#7392E1" fill-opacity="0.22"/>
    <path fill-rule="evenodd" clip-rule="evenodd" d="M25.7593 2.36809C38.5293 2.36809 48.8824 12.7212 48.8824 25.4912C48.8824 38.2612 38.5293 48.6143 25.7593 48.6143C21.3228 48.6143 17.1745 47.3524 13.6367 45.1863C13.1947 44.9157 12.6169 45.0547 12.3463 45.4967C12.0757 45.9387 12.2146 46.5164 12.6567 46.787C16.4762 49.1255 20.9616 50.4912 25.7593 50.4912C39.5658 50.4912 50.7593 39.2978 50.7593 25.4912C50.7593 11.6846 39.5658 0.491211 25.7593 0.491211C21.1981 0.491211 16.9448 1.70056 13.2395 3.84572C12.791 4.1054 12.6379 4.67952 12.8976 5.12806C13.1573 5.5766 13.7314 5.7297 14.1799 5.47002C17.6068 3.48605 21.5367 2.36809 25.7593 2.36809Z" fill="#ACBFEB"/>
    <path fill-rule="evenodd" clip-rule="evenodd" d="M5.4777 12.4456C5.03121 12.1824 4.45591 12.331 4.19272 12.7775C2.0066 16.486 0.759413 20.8545 0.759413 25.4537C0.759413 30.9901 2.55371 36.1014 5.59666 40.2366C5.90384 40.6541 6.49126 40.7435 6.90871 40.4363C7.32616 40.1291 7.41555 39.5417 7.10837 39.1243C4.29547 35.3016 2.63629 30.578 2.63629 25.4537C2.63629 21.1941 3.79149 17.1541 5.80958 13.7306C6.07278 13.2841 5.92419 12.7088 5.4777 12.4456Z" fill="#ACBFEB"/>
    <path d="M29.6272 23.433C30.058 23.433 30.4072 23.0838 30.4072 22.653C30.4072 22.2223 30.058 21.873 29.6272 21.873C29.1964 21.873 28.8472 22.2223 28.8472 22.653C28.8472 23.0838 29.1964 23.433 29.6272 23.433Z" fill="#ACBFEB"/>
    <path fill-rule="evenodd" clip-rule="evenodd" d="M23.0093 25.9912C23.0093 27.7836 24.4669 29.2412 26.2593 29.2412C28.0517 29.2412 29.5093 27.7836 29.5093 25.9912C29.5093 24.1988 28.0517 22.7412 26.2593 22.7412C24.4669 22.7412 23.0093 24.1988 23.0093 25.9912ZM24.6343 25.9912C24.6343 25.095 25.3631 24.3662 26.2593 24.3662C27.1555 24.3662 27.8843 25.095 27.8843 25.9912C27.8843 26.8874 27.1555 27.6162 26.2593 27.6162C25.3631 27.6162 24.6343 26.8874 24.6343 25.9912Z" fill="#ACBFEB"/>
    <path fill-rule="evenodd" clip-rule="evenodd" d="M23.0093 32.4912H29.5093C31.1798 32.4912 32.7593 30.9117 32.7593 29.2412V22.7412C32.7593 21.0707 31.1798 19.4912 29.5093 19.4912H23.0093C21.3388 19.4912 19.7593 21.0707 19.7593 22.7412V29.2412C19.7593 30.9117 21.3388 32.4912 23.0093 32.4912ZM21.3843 22.7412C21.3843 21.9815 22.2496 21.1162 23.0093 21.1162H29.5093C30.269 21.1162 31.1343 21.9815 31.1343 22.7412V29.2412C31.1343 30.0009 30.269 30.8662 29.5093 30.8662H23.0093C22.235 30.8662 21.3843 30.0155 21.3843 29.2412V22.7412Z" fill="#ACBFEB"/>
</svg>
