<svg width="51" height="51" viewBox="0 0 51 51" fill="none" xmlns="http://www.w3.org/2000/svg">
    <path d="M25.7593 45.5363C36.8507 45.5363 45.8419 36.545 45.8419 25.4537C45.8419 14.3624 36.8507 5.37109 25.7593 5.37109C14.668 5.37109 5.67676 14.3624 5.67676 25.4537C5.67676 36.545 14.668 45.5363 25.7593 45.5363Z" fill="#7392E1" fill-opacity="0.22"/>
    <path fill-rule="evenodd" clip-rule="evenodd" d="M25.7593 2.36809C12.9893 2.36809 2.63615 12.7212 2.63615 25.4912C2.63615 38.2612 12.9893 48.6143 25.7593 48.6143C30.1958 48.6143 34.344 47.3524 37.8819 45.1863C38.3239 44.9157 38.9016 45.0547 39.1722 45.4967C39.4429 45.9387 39.3039 46.5164 38.8619 46.787C35.0424 49.1255 30.557 50.4912 25.7593 50.4912C11.9527 50.4912 0.759277 39.2978 0.759277 25.4912C0.759277 11.6846 11.9527 0.491211 25.7593 0.491211C30.3205 0.491211 34.5737 1.70056 38.279 3.84572C38.7276 4.1054 38.8807 4.67952 38.621 5.12806C38.3613 5.5766 37.7872 5.7297 37.3386 5.47002C33.9118 3.48605 29.9819 2.36809 25.7593 2.36809Z" fill="#ACBFEB"/>
    <path fill-rule="evenodd" clip-rule="evenodd" d="M46.0409 12.4456C46.4873 12.1824 47.0626 12.331 47.3258 12.7775C49.512 16.486 50.7591 20.8545 50.7591 25.4537C50.7591 30.9901 48.9648 36.1014 45.9219 40.2366C45.6147 40.6541 45.0273 40.7435 44.6098 40.4363C44.1924 40.1291 44.103 39.5417 44.4102 39.1243C47.2231 35.3016 48.8823 30.578 48.8823 25.4537C48.8823 21.1941 47.7271 17.1541 45.709 13.7306C45.4458 13.2841 45.5944 12.7088 46.0409 12.4456Z" fill="#ACBFEB"/>
    <path d="M24.8424 28.1165L28.5187 25.9915L24.8424 23.8665V28.1165ZM33.0308 22.5703C33.1229 22.9032 33.1866 23.3495 33.2291 23.9161C33.2787 24.4828 33.2999 24.9715 33.2999 25.3965L33.3424 25.9915C33.3424 27.5428 33.2291 28.6832 33.0308 29.4128C32.8537 30.0503 32.4429 30.4611 31.8054 30.6382C31.4724 30.7303 30.8633 30.794 29.9283 30.8365C29.0074 30.8861 28.1645 30.9074 27.3854 30.9074L26.2591 30.9499C23.2912 30.9499 21.4424 30.8365 20.7129 30.6382C20.0754 30.4611 19.6645 30.0503 19.4874 29.4128C19.3954 29.0799 19.3316 28.6336 19.2891 28.067C19.2395 27.5003 19.2183 27.0115 19.2183 26.5865L19.1758 25.9915C19.1758 24.4403 19.2891 23.2999 19.4874 22.5703C19.6645 21.9328 20.0754 21.522 20.7129 21.3449C21.0458 21.2528 21.6549 21.189 22.5899 21.1465C23.5108 21.097 24.3537 21.0757 25.1329 21.0757L26.2591 21.0332C29.227 21.0332 31.0758 21.1465 31.8054 21.3449C32.4429 21.522 32.8537 21.9328 33.0308 22.5703Z" fill="#ACBFEB"/>
</svg>
