<svg width="51" height="51" viewBox="0 0 51 51" fill="none" xmlns="http://www.w3.org/2000/svg">
    <path d="M25.7592 45.5363C14.6679 45.5363 5.67661 36.545 5.67661 25.4537C5.67661 14.3624 14.6679 5.37109 25.7592 5.37109C36.8505 5.37109 45.8418 14.3624 45.8418 25.4537C45.8418 36.545 36.8505 45.5363 25.7592 45.5363Z" fill="#7392E1" fill-opacity="0.22"/>
    <path fill-rule="evenodd" clip-rule="evenodd" d="M25.7593 2.36809C38.5293 2.36809 48.8824 12.7212 48.8824 25.4912C48.8824 38.2612 38.5293 48.6143 25.7593 48.6143C21.3228 48.6143 17.1745 47.3524 13.6367 45.1863C13.1947 44.9157 12.6169 45.0547 12.3463 45.4967C12.0757 45.9387 12.2146 46.5164 12.6567 46.787C16.4762 49.1255 20.9616 50.4912 25.7593 50.4912C39.5658 50.4912 50.7593 39.2978 50.7593 25.4912C50.7593 11.6846 39.5658 0.491211 25.7593 0.491211C21.1981 0.491211 16.9448 1.70056 13.2395 3.84572C12.791 4.1054 12.6379 4.67952 12.8976 5.12806C13.1573 5.5766 13.7314 5.7297 14.1799 5.47002C17.6068 3.48605 21.5367 2.36809 25.7593 2.36809Z" fill="#ACBFEB"/>
    <path fill-rule="evenodd" clip-rule="evenodd" d="M5.4777 12.4456C5.03121 12.1824 4.45591 12.331 4.19272 12.7775C2.0066 16.486 0.759413 20.8545 0.759413 25.4537C0.759413 30.9901 2.55371 36.1014 5.59666 40.2366C5.90384 40.6541 6.49126 40.7435 6.90871 40.4363C7.32616 40.1291 7.41555 39.5417 7.10837 39.1243C4.29547 35.3016 2.63629 30.578 2.63629 25.4537C2.63629 21.1941 3.79149 17.1541 5.80958 13.7306C6.07278 13.2841 5.92419 12.7088 5.4777 12.4456Z" fill="#ACBFEB"/>
    <g clip-path="url(#clip0_134_8392)">
        <path d="M32.7523 20.0732C32.7666 19.9873 32.7582 19.8992 32.728 19.8176C32.6977 19.7359 32.6467 19.6636 32.5799 19.6077C32.5132 19.5519 32.433 19.5144 32.3473 19.499C32.2616 19.4837 32.1734 19.491 32.0913 19.5202L18.0913 24.5202C17.9991 24.5531 17.9185 24.6124 17.8596 24.6907C17.8007 24.769 17.7662 24.8629 17.7602 24.9607C17.7542 25.0585 17.7771 25.1559 17.8261 25.2408C17.875 25.3257 17.9477 25.3943 18.0353 25.4382L22.0353 27.4382C22.1142 27.4777 22.202 27.4956 22.29 27.4901C22.378 27.4847 22.463 27.4561 22.5363 27.4072L25.8563 25.1932L23.8693 27.6792C23.8261 27.7333 23.7946 27.7958 23.7768 27.8627C23.7589 27.9297 23.7552 27.9996 23.7659 28.068C23.7765 28.1365 23.8012 28.202 23.8385 28.2604C23.8757 28.3187 23.9247 28.3687 23.9823 28.4072L29.9823 32.4072C30.0518 32.4534 30.1318 32.4815 30.2149 32.4889C30.298 32.4963 30.3816 32.4827 30.4581 32.4495C30.5347 32.4163 30.6017 32.3645 30.6531 32.2988C30.7045 32.233 30.7386 32.1555 30.7523 32.0732L32.7523 20.0732Z" fill="#ACBFEB"/>
    </g>
    <defs>
        <clipPath id="clip0_134_8392">
            <rect width="15" height="15" fill="white" transform="translate(17.7593 18.4912)"/>
        </clipPath>
    </defs>
</svg>
