<svg width="51" height="51" viewBox="0 0 51 51" fill="none" xmlns="http://www.w3.org/2000/svg">
    <path d="M25.7593 45.5363C36.8507 45.5363 45.8419 36.545 45.8419 25.4537C45.8419 14.3624 36.8507 5.37109 25.7593 5.37109C14.668 5.37109 5.67676 14.3624 5.67676 25.4537C5.67676 36.545 14.668 45.5363 25.7593 45.5363Z" fill="#7392E1" fill-opacity="0.22"/>
    <path fill-rule="evenodd" clip-rule="evenodd" d="M25.7593 2.36809C12.9893 2.36809 2.63615 12.7212 2.63615 25.4912C2.63615 38.2612 12.9893 48.6143 25.7593 48.6143C30.1958 48.6143 34.344 47.3524 37.8819 45.1863C38.3239 44.9157 38.9016 45.0547 39.1722 45.4967C39.4429 45.9387 39.3039 46.5164 38.8619 46.787C35.0424 49.1255 30.557 50.4912 25.7593 50.4912C11.9527 50.4912 0.759277 39.2978 0.759277 25.4912C0.759277 11.6846 11.9527 0.491211 25.7593 0.491211C30.3205 0.491211 34.5737 1.70056 38.279 3.84572C38.7276 4.1054 38.8807 4.67952 38.621 5.12806C38.3613 5.5766 37.7872 5.7297 37.3386 5.47002C33.9118 3.48605 29.9819 2.36809 25.7593 2.36809Z" fill="#ACBFEB"/>
    <path fill-rule="evenodd" clip-rule="evenodd" d="M46.0409 12.4456C46.4873 12.1824 47.0626 12.331 47.3258 12.7775C49.512 16.486 50.7591 20.8545 50.7591 25.4537C50.7591 30.9901 48.9648 36.1014 45.9219 40.2366C45.6147 40.6541 45.0273 40.7435 44.6098 40.4363C44.1924 40.1291 44.103 39.5417 44.4102 39.1243C47.2231 35.3016 48.8823 30.578 48.8823 25.4537C48.8823 21.1941 47.7271 17.1541 45.709 13.7306C45.4458 13.2841 45.5944 12.7088 46.0409 12.4456Z" fill="#ACBFEB"/>
    <path d="M33.045 19.8406C32.5093 20.1104 31.9736 20.2004 31.3486 20.2903C31.9736 19.9305 32.42 19.3908 32.5986 18.6711C32.0628 19.0309 31.4378 19.2109 30.7236 19.3908C30.1878 18.851 29.3843 18.4912 28.5807 18.4912C27.0628 18.4912 25.7236 19.8406 25.7236 21.4598C25.7236 21.7296 25.7236 21.9096 25.8128 22.0895C23.4021 21.9995 21.17 20.8301 19.7414 19.0309C19.4736 19.4807 19.3843 19.9305 19.3843 20.5602C19.3843 21.5497 19.92 22.4493 20.7236 22.989C20.2771 22.989 19.8307 22.8091 19.3843 22.6292C19.3843 24.0685 20.3664 25.2379 21.7057 25.5078C21.4378 25.5978 21.17 25.5978 20.9021 25.5978C20.7236 25.5978 20.545 25.5978 20.3664 25.5078C20.7236 26.6772 21.795 27.5768 23.1343 27.5768C22.1521 28.3864 20.9021 28.8362 19.4736 28.8362C19.2057 28.8362 19.0271 28.8362 18.7593 28.8362C20.0986 29.6458 21.6164 30.1855 23.2236 30.1855C28.5807 30.1855 31.5271 25.6877 31.5271 21.8196C31.5271 21.7296 31.5271 21.5497 31.5271 21.4598C32.1521 21.01 32.6878 20.4703 33.045 19.8406Z" fill="#ACBFEB"/>
</svg>
