<svg width="51" height="51" viewBox="0 0 51 51" fill="none" xmlns="http://www.w3.org/2000/svg">
    <path d="M25.7593 45.5363C36.8507 45.5363 45.8419 36.545 45.8419 25.4537C45.8419 14.3624 36.8507 5.37109 25.7593 5.37109C14.668 5.37109 5.67676 14.3624 5.67676 25.4537C5.67676 36.545 14.668 45.5363 25.7593 45.5363Z" fill="#7392E1" fill-opacity="0.22"/>
    <path fill-rule="evenodd" clip-rule="evenodd" d="M25.7593 2.36809C12.9893 2.36809 2.63615 12.7212 2.63615 25.4912C2.63615 38.2612 12.9893 48.6143 25.7593 48.6143C30.1958 48.6143 34.344 47.3524 37.8819 45.1863C38.3239 44.9157 38.9016 45.0547 39.1722 45.4967C39.4429 45.9387 39.3039 46.5164 38.8619 46.787C35.0424 49.1255 30.557 50.4912 25.7593 50.4912C11.9527 50.4912 0.759277 39.2978 0.759277 25.4912C0.759277 11.6846 11.9527 0.491211 25.7593 0.491211C30.3205 0.491211 34.5737 1.70056 38.279 3.84572C38.7276 4.1054 38.8807 4.67952 38.621 5.12806C38.3613 5.5766 37.7872 5.7297 37.3386 5.47002C33.9118 3.48605 29.9819 2.36809 25.7593 2.36809Z" fill="#ACBFEB"/>
    <path fill-rule="evenodd" clip-rule="evenodd" d="M46.0409 12.4456C46.4873 12.1824 47.0626 12.331 47.3258 12.7775C49.512 16.486 50.7591 20.8545 50.7591 25.4537C50.7591 30.9901 48.9648 36.1014 45.9219 40.2366C45.6147 40.6541 45.0273 40.7435 44.6098 40.4363C44.1924 40.1291 44.103 39.5417 44.4102 39.1243C47.2231 35.3016 48.8823 30.578 48.8823 25.4537C48.8823 21.1941 47.7271 17.1541 45.709 13.7306C45.4458 13.2841 45.5944 12.7088 46.0409 12.4456Z" fill="#ACBFEB"/>
    <path d="M31.5926 17.9912C32.0346 17.9912 32.4586 18.1668 32.7711 18.4794C33.0837 18.7919 33.2593 19.2159 33.2593 19.6579V31.3245C33.2593 31.7666 33.0837 32.1905 32.7711 32.5031C32.4586 32.8156 32.0346 32.9912 31.5926 32.9912H19.9259C19.4839 32.9912 19.06 32.8156 18.7474 32.5031C18.4349 32.1905 18.2593 31.7666 18.2593 31.3245V19.6579C18.2593 19.2159 18.4349 18.7919 18.7474 18.4794C19.06 18.1668 19.4839 17.9912 19.9259 17.9912H31.5926ZM31.1759 30.9079V26.4912C31.1759 25.7707 30.8897 25.0797 30.3802 24.5702C29.8708 24.0608 29.1798 23.7745 28.4593 23.7745C27.7509 23.7745 26.9259 24.2079 26.5259 24.8579V23.9329H24.2009V30.9079H26.5259V26.7995C26.5259 26.1579 27.0426 25.6329 27.6843 25.6329C27.9937 25.6329 28.2904 25.7558 28.5092 25.9746C28.728 26.1934 28.8509 26.4901 28.8509 26.7995V30.9079H31.1759ZM21.4926 22.6245C21.8639 22.6245 22.22 22.477 22.4826 22.2145C22.7451 21.9519 22.8926 21.5958 22.8926 21.2245C22.8926 20.4495 22.2676 19.8162 21.4926 19.8162C21.1191 19.8162 20.7609 19.9646 20.4968 20.2287C20.2327 20.4928 20.0843 20.851 20.0843 21.2245C20.0843 21.9995 20.7176 22.6245 21.4926 22.6245ZM22.6509 30.9079V23.9329H20.3426V30.9079H22.6509Z" fill="#ACBFEB"/>
</svg>
