<?xml version="1.0" encoding="UTF-8" standalone="no"?>
<!DOCTYPE svg PUBLIC "-//W3C//DTD SVG 1.1//EN" "http://www.w3.org/Graphics/SVG/1.1/DTD/svg11.dtd">
<!-- Created with Vectornator (http://vectornator.io/) -->
<svg height="100%" stroke-miterlimit="10" style="fill-rule:nonzero;clip-rule:evenodd;stroke-linecap:round;stroke-linejoin:round;" version="1.1" viewBox="0 0 700 700" width="100%" xml:space="preserve" xmlns="http://www.w3.org/2000/svg" xmlns:vectornator="http://vectornator.io" xmlns:xlink="http://www.w3.org/1999/xlink">
<defs>
<linearGradient gradientTransform="matrix(4.47575 0 0 3.98399 -324.154 -1102.83)" gradientUnits="userSpaceOnUse" id="LinearGradient" x1="143.207" x2="61.2864" y1="332.896" y2="417.431">
<stop offset="0" stop-color="#092c3e"/>
<stop offset="0.547521" stop-color="#00e8eb"/>
<stop offset="1" stop-color="#8bffff"/>
</linearGradient>
<linearGradient gradientTransform="matrix(4.47575 0 0 3.98399 -324.154 -1102.83)" gradientUnits="userSpaceOnUse" id="LinearGradient_2" x1="194.915" x2="86.2692" y1="367.465" y2="285.255">
<stop offset="0" stop-color="#092c3e"/>
<stop offset="0.547521" stop-color="#00e8eb"/>
<stop offset="1" stop-color="#8bffff"/>
</linearGradient>
<linearGradient gradientTransform="matrix(4.47575 0 0 3.98399 -324.154 -1102.83)" gradientUnits="userSpaceOnUse" id="LinearGradient_3" x1="104.37" x2="221.889" y1="405.1" y2="405.1">
<stop offset="0" stop-color="#092c3e"/>
<stop offset="0.547521" stop-color="#00e8eb"/>
<stop offset="1" stop-color="#8bffff"/>
</linearGradient>
</defs>
<g id="Слой-1" vectornator:layerName="Слой 1">
<g opacity="1">
<path d="M352.732 224.91C352.732 224.91 288.51 272.298 263.509 293.811C238.508 315.323 216.271 336.586 216.271 336.586C216.271 336.586 192.763 359.946 171.212 386.162C149.661 412.378 135.568 441.658 135.568 441.658C135.568 441.658 127.781 464.793 127.395 488.962C127.008 513.132 129.301 523.582 132.137 541.58C134.974 559.577 136.116 562.802 136.116 562.802C136.116 562.802 126.808 553.519 104.583 528.565C81.1094 502.21 55.726 448.88 55.726 448.88C55.726 448.88 49.8338 436.901 45.3343 422.305C40.8349 407.708 34.456 387.503 34.456 387.503C34.456 387.503 28.6937 361.664 32.129 340.654C35.5642 319.644 37.1967 312.875 48.0953 292.939C58.9939 273.002 80.7763 254.172 80.7763 254.172C80.7763 254.172 94.9742 241.162 115.952 226.498C136.929 211.835 140.036 210.711 159.634 202.256C179.231 193.801 202.907 190.064 202.907 190.064C202.907 190.064 225.665 185.643 252.362 187.334C265.1 188.141 279.918 190.706 279.918 190.706C279.918 190.706 295.098 194.61 307.883 200.052C332.335 210.459 352.732 224.91 352.732 224.91Z" fill="url(#LinearGradient)" fill-rule="nonzero" opacity="1" stroke="none"/>
<path d="M364.491 221.371C364.491 221.371 340.197 199.391 303.307 186.555C266.417 173.719 216.233 173.633 216.233 173.633C216.233 173.633 177.398 173.369 145.859 184.91C114.321 196.45 101.459 209.826 101.459 209.826C100.777 210.262 79.3299 228.274 77.0025 230.335L31.8879 271.021L31.8879 271.021C31.8879 271.021 34.9308 256.655 45.5593 236.096C56.1878 215.538 60.2141 209.819 74.4019 188.786C88.5898 167.752 113.415 142.29 113.415 142.29C113.415 142.29 144.339 111.835 183.238 89.3587C219.669 68.3083 255.294 59.5145 255.294 59.5145L312.255 49.2464C312.255 49.2464 356.542 43.8435 393.059 48.0406C429.575 52.2377 430.235 53.1009 460.026 63.6847C489.816 74.2684 514.54 90.146 514.54 90.146C514.54 90.146 546.948 108.244 569.28 133.578C591.612 158.912 600.563 189.442 600.563 189.442C600.563 189.442 606.479 217.318 597.705 246.228C588.931 275.139 573.536 297.955 567.865 304.897C564.015 309.61 559.507 316.16 548.805 326.613C543.743 331.557 527.379 345.51 527.379 345.51C526.796 346.073 520.92 350.973 518.335 352.774L516.497 354.056C513.912 355.857 511.664 357.176 511.476 357.001C511.476 357.001 366.903 222.789 364.491 221.371Z" fill="url(#LinearGradient_2)" fill-rule="nonzero" opacity="1" stroke="none"/>
<path d="M226.34 368.321C226.34 368.321 193.528 398.509 175.886 420.187C158.245 441.865 155.774 455.034 155.774 455.034C152.557 460.943 148.801 470.958 147.384 477.402L147.109 478.655C145.693 485.1 142.836 493.121 141.665 506.653C140.495 520.186 142.426 532.784 142.426 532.784C145.424 557.718 159.962 576.86 159.962 576.86C159.962 576.86 174.41 598.946 198.898 614.705C223.385 630.463 258.84 641.698 258.84 641.698C258.84 641.698 271.604 646.337 286.825 649.006C302.047 651.676 319.726 652.377 319.726 652.377C319.726 652.377 357.323 654.96 387.472 652.48C417.621 650.001 440.323 642.457 440.323 642.457C447.499 640.935 458.832 637.643 465.634 635.102L478.522 630.29C485.324 627.75 496.011 623.018 502.391 619.721L545.949 597.212C570.604 581.588 571.561 579.524 589.458 563.191C607.356 546.858 617.538 531.882 617.538 531.882C617.538 531.882 627.049 521.627 636.867 506.914C646.685 492.202 646.591 490.692 654.615 473.916C662.639 457.141 668.964 439.813 668.964 439.813C668.964 439.813 633.781 472.076 609.387 490.128C599.012 497.805 593.318 501.19 593.318 501.19C593.318 501.19 577.421 510.308 563.829 515.553C551.585 520.277 546.074 521.192 540.063 522.325C534.463 523.38 528.484 524.734 514.788 526.63C498.504 528.885 485.791 529.921 485.791 529.921C485.791 529.921 474.966 530.727 464.121 529.755C438.699 527.475 435.379 527.029 416.189 521.236C397 515.442 381.032 504.574 381.032 504.574C381.032 504.574 355.455 489.213 340.118 475.638C324.781 462.063 321.916 460.389 302.974 442.69C284.033 424.991 277.908 416.842 257.883 398.792C237.858 380.741 226.34 368.321 226.34 368.321Z" fill="url(#LinearGradient_3)" fill-rule="nonzero" opacity="1" stroke="none"/>
</g>
</g>
</svg>
