<?xml version="1.0" encoding="UTF-8" standalone="no"?>
<!DOCTYPE svg PUBLIC "-//W3C//DTD SVG 1.1//EN" "http://www.w3.org/Graphics/SVG/1.1/DTD/svg11.dtd">
<!-- Created with Vectornator (http://vectornator.io/) -->
<svg height="100%" stroke-miterlimit="10" style="fill-rule:nonzero;clip-rule:evenodd;stroke-linecap:round;stroke-linejoin:round;" version="1.1" viewBox="0 0 350 100" width="100%" xml:space="preserve" xmlns="http://www.w3.org/2000/svg" xmlns:vectornator="http://vectornator.io" xmlns:xlink="http://www.w3.org/1999/xlink">
<defs>
<linearGradient gradientTransform="matrix(0.611103 0 0 0.580586 -46.7784 -159.659)" gradientUnits="userSpaceOnUse" id="LinearGradient" x1="143.207" x2="61.2864" y1="332.896" y2="417.431">
<stop offset="0" stop-color="#092c3e"/>
<stop offset="0.547521" stop-color="#00e8eb"/>
<stop offset="1" stop-color="#8bffff"/>
</linearGradient>
<linearGradient gradientTransform="matrix(0.611103 0 0 0.580586 -46.7784 -159.659)" gradientUnits="userSpaceOnUse" id="LinearGradient_2" x1="194.915" x2="86.2692" y1="367.465" y2="285.255">
<stop offset="0" stop-color="#092c3e"/>
<stop offset="0.547521" stop-color="#00e8eb"/>
<stop offset="1" stop-color="#8bffff"/>
</linearGradient>
<linearGradient gradientTransform="matrix(0.611103 0 0 0.580586 -46.7784 -159.659)" gradientUnits="userSpaceOnUse" id="LinearGradient_3" x1="104.37" x2="221.889" y1="405.1" y2="405.1">
<stop offset="0" stop-color="#092c3e"/>
<stop offset="0.547521" stop-color="#00e8eb"/>
<stop offset="1" stop-color="#8bffff"/>
</linearGradient>
</defs>
<g id="Untitled" vectornator:layerName="Untitled"/>
<g id="Слой-1" vectornator:layerName="Слой 1">
<g opacity="1">
<path d="M110.371 74.3272C116.848 74.3272 122.453 70.5016 125.229 64.9129L119.023 61.5448C117.445 64.7983 114.237 66.965 110.371 66.965C104.874 66.965 100.685 62.5181 100.685 56.7552C100.685 50.9934 104.874 46.5419 110.371 46.5419C114.237 46.5419 117.445 48.7086 119.023 51.9621L125.229 48.5939C122.453 43.0053 116.848 39.1797 110.371 39.1797C101.122 39.1797 93.6109 47.0532 93.6109 56.7552C93.6109 66.4525 101.122 74.3272 110.371 74.3272Z" fill="#083246" fill-rule="nonzero" opacity="1" stroke="none"/>
<path d="M140.461 74.3272C147.753 74.3272 152.544 69.3048 152.544 62.4585C152.544 55.6134 147.753 50.591 140.461 50.591C133.169 50.591 128.327 55.6134 128.327 62.4585C128.327 69.3048 133.169 74.3272 140.461 74.3272ZM140.461 67.8786C137.467 67.8237 135.292 65.5388 135.292 62.4585C135.292 59.3793 137.467 57.0933 140.461 57.0395C143.399 57.0933 145.631 59.3793 145.631 62.4585C145.631 65.5388 143.399 67.8237 140.461 67.8786Z" fill="#083246" fill-rule="nonzero" opacity="1" stroke="none"/>
<path d="M161.085 47.2275C163.152 47.2275 164.895 45.3989 164.895 43.2334C164.895 41.0071 163.152 39.2394 161.085 39.2394C159.015 39.2394 157.276 41.0071 157.276 43.2334C157.276 45.3989 159.015 47.2275 161.085 47.2275ZM157.603 73.8697L164.512 73.8697L164.512 51.0484L157.603 51.0484L157.603 73.8697Z" fill="#083246" fill-rule="nonzero" opacity="1" stroke="none"/>
<path d="M184.266 50.591C181.763 50.591 179.584 51.8474 178.063 53.8444L178.063 51.0484L171.098 51.0484L171.098 73.8697L178.063 73.8697L178.063 60.6358C178.063 58.5791 179.693 57.0395 181.707 57.0395C183.72 57.0395 185.137 58.5791 185.137 60.6358L185.137 73.8697L192.045 73.8697L192.045 59.4331C192.045 54.4154 188.563 50.591 184.266 50.591Z" fill="#083246" fill-rule="nonzero" opacity="1" stroke="none"/>
<path d="M208.096 74.3272C214.195 74.3272 219.363 70.5612 219.363 64.1724C219.363 51.5046 204.344 54.6447 204.344 48.7086C204.344 46.77 205.755 45.8563 207.5 45.8563C209.347 45.8563 211.2 46.9397 212.83 48.822L217.62 44.0289C215.227 41.1217 211.579 39.1797 207.552 39.1797C202.382 39.1797 197.103 42.4332 197.103 49.2795C197.103 60.9189 212.18 58.1216 212.18 64.1127C212.18 65.9963 210.655 67.2527 208.153 67.2527C205.159 67.2527 202.817 65.4838 201.624 62.8013L195.692 66.6818C197.814 70.959 202.382 74.3272 208.096 74.3272Z" fill="#083246" fill-rule="nonzero" opacity="1" stroke="none"/>
<path d="M245.97 62.4046C245.97 55.2706 241.289 50.536 234.272 50.536C227.25 50.536 222.299 55.3256 222.299 62.4585C222.299 69.5925 227.197 74.3272 234.489 74.3272C240.526 74.3272 244.554 70.959 245.643 65.9963L238.948 65.9963C238.351 67.8237 236.773 68.907 234.381 68.907C231.225 68.907 229.591 66.91 229.321 63.6565L245.97 63.6565L245.97 62.4046ZM234.381 56.1246C236.721 56.1246 238.081 57.2676 238.787 59.2646L229.751 59.2646C230.462 57.3226 231.931 56.1246 234.381 56.1246Z" fill="#083246" fill-rule="nonzero" opacity="1" stroke="none"/>
<path d="M263.981 50.591C261.479 50.591 259.3 51.8474 257.778 53.8444L257.778 51.0484L250.813 51.0484L250.813 73.8697L257.778 73.8697L257.778 60.6358C257.778 58.5791 259.408 57.0395 261.422 57.0395C263.436 57.0395 264.852 58.5791 264.852 60.6358L264.852 73.8697L271.76 73.8697L271.76 59.4331C271.76 54.4154 268.278 50.591 263.981 50.591Z" fill="#083246" fill-rule="nonzero" opacity="1" stroke="none"/>
<path d="M293.199 34.7879L293.199 53.0454C291.569 51.5046 289.499 50.591 286.997 50.591C280.956 50.591 276.221 55.8415 276.221 62.4585C276.221 69.0766 280.956 74.3272 286.997 74.3272C289.499 74.3272 291.569 73.4135 293.199 71.8727L293.199 73.9247L300.113 73.8697L300.113 34.7879L293.199 34.7879ZM288.356 67.8786C285.471 67.8786 283.188 65.4838 283.188 62.4585C283.188 59.4331 285.471 57.0395 288.356 57.0395C291.186 57.0395 293.526 59.4331 293.526 62.4585C293.526 65.4838 291.186 67.8786 288.356 67.8786Z" fill="#083246" fill-rule="nonzero" opacity="1" stroke="none"/>
<path d="M328.679 62.4046C328.679 55.2706 323.997 50.536 316.979 50.536C309.958 50.536 305.007 55.3256 305.007 62.4585C305.007 69.5925 309.906 74.3272 317.198 74.3272C323.235 74.3272 327.262 70.959 328.352 65.9963L321.657 65.9963C321.06 67.8237 319.482 68.907 317.089 68.907C313.933 68.907 312.299 66.91 312.029 63.6565L328.679 63.6565L328.679 62.4046ZM317.089 56.1246C319.43 56.1246 320.789 57.2676 321.495 59.2646L312.46 59.2646C313.17 57.3226 314.64 56.1246 317.089 56.1246Z" fill="#083246" fill-rule="nonzero" opacity="1" stroke="none"/>
<path d="M346.579 50.591C344.022 50.591 341.898 51.9621 340.487 54.1872L340.487 51.0484L333.521 51.0484L333.521 73.8697L340.487 73.8697L340.487 62.9709C340.487 59.205 342.932 57.0395 346.362 57.0395C347.177 57.0395 347.887 57.1529 348.376 57.2676L348.376 50.8191C347.887 50.6506 347.233 50.591 346.579 50.591Z" fill="#083246" fill-rule="nonzero" opacity="1" stroke="none"/>
<g opacity="1">
<path d="M45.6414 33.8321C45.6414 33.8321 36.8726 40.738 33.459 43.8722C30.0455 47.0075 27.0094 50.1066 27.0094 50.1066C27.0094 50.1066 23.7997 53.5099 20.8572 57.3308C17.9146 61.1517 15.9904 65.4183 15.9904 65.4183C15.9904 65.4183 14.9273 68.79 14.8745 72.3114C14.8217 75.834 15.1347 77.3572 15.522 79.9802C15.9093 82.6031 16.0652 83.0722 16.0652 83.0722C16.0652 83.0722 14.7944 81.7198 11.7598 78.0826C8.55487 74.2429 5.0891 66.4712 5.0891 66.4712C5.0891 66.4712 4.28458 64.7246 3.6702 62.5977C3.05593 60.4708 2.18492 57.5261 2.18492 57.5261C2.18492 57.5261 1.39814 53.7602 1.86724 50.6986C2.33622 47.6369 2.55917 46.6507 4.04724 43.7458C5.53532 40.8398 8.50935 38.0963 8.50935 38.0963C8.50935 38.0963 10.4479 36.1999 13.3121 34.0625C16.1763 31.9263 16.6005 31.7625 19.2762 30.5306C21.9521 29.2975 25.1847 28.7535 25.1847 28.7535C25.1847 28.7535 28.292 28.1089 31.937 28.3557C33.6764 28.4727 35.6994 28.8471 35.6994 28.8471C35.6994 28.8471 37.7721 29.4157 39.5177 30.2089C42.8564 31.7262 45.6414 33.8321 45.6414 33.8321Z" fill="url(#LinearGradient)" fill-rule="nonzero" opacity="1" stroke="none"/>
<path d="M47.2468 33.3161C47.2468 33.3161 43.9297 30.1129 38.8929 28.2422C33.8562 26.3716 27.0042 26.3587 27.0042 26.3587C27.0042 26.3587 21.7018 26.3201 17.3956 28.0024C13.0894 29.6847 11.3333 31.6338 11.3333 31.6338C11.2401 31.697 8.31184 34.3222 7.99406 34.6217L1.83432 40.5508L1.83432 40.5508C1.83432 40.5508 2.24975 38.4579 3.701 35.4617C5.15214 32.4656 5.7018 31.6326 7.639 28.5675C9.57619 25.5023 12.9658 21.7914 12.9658 21.7914C12.9658 21.7914 17.1881 17.3527 22.4991 14.0782C27.4733 11.0095 32.3374 9.72848 32.3374 9.72848L40.1148 8.23218C40.1148 8.23218 46.1615 7.44482 51.1473 8.05668C56.1332 8.66855 56.2234 8.79373 60.2908 10.3368C64.3582 11.8788 67.734 14.1928 67.734 14.1928C67.734 14.1928 72.1589 16.8298 75.208 20.522C78.2572 24.2143 79.4792 28.6622 79.4792 28.6622C79.4792 28.6622 80.2871 32.7253 79.089 36.9382C77.8911 41.151 75.7891 44.477 75.0148 45.4878C74.4891 46.1745 73.8736 47.1292 72.4124 48.6524C71.7213 49.3731 69.4871 51.4064 69.4871 51.4064C69.4074 51.4883 68.6051 52.2031 68.2522 52.4651L68.0012 52.6523C67.6483 52.9144 67.3413 53.1062 67.3155 53.0817C67.3155 53.0817 47.5761 33.522 47.2468 33.3161Z" fill="url(#LinearGradient_2)" fill-rule="nonzero" opacity="1" stroke="none"/>
<path d="M28.3841 54.7312C28.3841 54.7312 23.904 59.1301 21.4953 62.2888C19.0867 65.4487 18.7493 67.3674 18.7493 67.3674C18.31 68.2284 17.7972 69.6885 17.6037 70.6267L17.5662 70.8093C17.3727 71.7487 16.9828 72.9174 16.823 74.8899C16.6631 76.8623 16.9269 78.6979 16.9269 78.6979C17.3361 82.3317 19.3211 85.1207 19.3211 85.1207C19.3211 85.1207 21.2938 88.3403 24.6373 90.6368C27.9806 92.9333 32.8216 94.57 32.8216 94.57C32.8216 94.57 34.5643 95.2462 36.6426 95.6347C38.7209 96.0242 41.1347 96.126 41.1347 96.126C41.1347 96.126 46.2681 96.5027 50.3845 96.1412C54.501 95.7797 57.6006 94.6812 57.6006 94.6812C58.5805 94.4589 60.1278 93.9792 61.0566 93.6084L62.8162 92.9076C63.745 92.5379 65.2041 91.8477 66.0753 91.3668L72.0224 88.0876C75.3887 85.8098 75.5195 85.5091 77.9631 83.1295C80.4067 80.7488 81.7965 78.5669 81.7965 78.5669C81.7965 78.5669 83.0953 77.0718 84.4365 74.9285C85.7767 72.7841 85.7633 72.5641 86.859 70.119C87.9548 67.6751 88.8184 65.1493 88.8184 65.1493C88.8184 65.1493 84.0148 69.8511 80.684 72.4822C79.2674 73.6007 78.49 74.0944 78.49 74.0944C78.49 74.0944 76.3195 75.4222 74.4638 76.1873C72.7919 76.8752 72.0395 77.0086 71.2187 77.1735C70.4543 77.328 69.6379 77.5245 67.7679 77.8006C65.5445 78.1294 63.8087 78.2803 63.8087 78.2803C63.8087 78.2803 62.3307 78.3984 60.8499 78.2569C57.3789 77.9246 56.9256 77.8591 54.3055 77.0156C51.6855 76.1709 49.5053 74.5869 49.5053 74.5869C49.5053 74.5869 46.013 72.3488 43.919 70.3705C41.8249 68.3922 41.4338 68.1477 38.8475 65.5681C36.2613 62.9896 35.425 61.8021 32.6909 59.171C29.9567 56.5411 28.3841 54.7312 28.3841 54.7312Z" fill="url(#LinearGradient_3)" fill-rule="nonzero" opacity="1" stroke="none"/>
</g>
</g>
</g>
</svg>
