<svg width="150" height="28" viewBox="0 0 150 28" fill="none" xmlns="http://www.w3.org/2000/svg">
    <path d="M14.5601 8.08143C14.5601 8.08143 11.6533 10.2273 10.5218 11.2011C9.39021 12.1754 8.3838 13.1383 8.3838 13.1383C8.3838 13.1383 7.31981 14.1958 6.34439 15.3831C5.36896 16.5703 4.73115 17.8961 4.73115 17.8961C4.73115 17.8961 4.3787 18.9437 4.36122 20.0379C4.34371 21.1325 4.44748 21.6058 4.57585 22.4208C4.70424 23.2358 4.75593 23.3816 4.75593 23.3816C4.75593 23.3816 4.33466 22.9613 3.32872 21.8312C2.26632 20.6381 1.11746 18.2232 1.11746 18.2232C1.11746 18.2232 0.85078 17.6805 0.647116 17.0196C0.443505 16.3588 0.154759 15.4438 0.154759 15.4438C0.154759 15.4438 -0.106037 14.2736 0.049472 13.3223C0.204929 12.3709 0.278836 12.0645 0.772109 11.1619C1.26538 10.2589 2.25125 9.40646 2.25125 9.40646C2.25125 9.40646 2.89383 8.8172 3.84329 8.15305C4.79275 7.48926 4.93335 7.43837 5.82034 7.05558C6.70736 6.67244 7.77891 6.50341 7.77891 6.50341C7.77891 6.50341 8.80893 6.3031 10.0172 6.3798C10.5938 6.41615 11.2644 6.53247 11.2644 6.53247C11.2644 6.53247 11.9515 6.70914 12.5301 6.95562C13.6369 7.4271 14.5601 8.08143 14.5601 8.08143Z" fill="url(#paint0_linear_208_177)"/>
    <path d="M15.0923 7.9211C15.0923 7.9211 13.9927 6.92577 12.3231 6.34451C10.6535 5.76326 8.38209 5.75924 8.38209 5.75924C8.38209 5.75924 6.62444 5.74726 5.19698 6.26998C3.76951 6.79273 3.18738 7.39835 3.18738 7.39835C3.1565 7.41798 2.18581 8.23372 2.08047 8.32679L0.0385742 10.1691C0.0385742 10.1691 0.176287 9.51875 0.657364 8.58778C1.13842 7.65681 1.32062 7.39799 1.96275 6.44558C2.60492 5.49316 3.72852 4.34008 3.72852 4.34008C3.72852 4.34008 5.12818 2.96087 6.88871 1.94338C8.5376 0.989879 10.15 0.591825 10.15 0.591825L12.7281 0.126887C12.7281 0.126887 14.7325 -0.117762 16.3853 0.0723576C18.038 0.262477 18.0679 0.301374 19.4162 0.780858C20.7645 1.25997 21.8835 1.97901 21.8835 1.97901C21.8835 1.97901 23.3504 2.79838 24.361 3.94564C25.3717 5.09292 25.7769 6.47502 25.7769 6.47502C25.7769 6.47502 26.0449 7.73753 25.6476 9.04655C25.2506 10.3556 24.5536 11.3891 24.2971 11.7032C24.1229 11.9165 23.9187 12.2132 23.4343 12.6865C23.2053 12.9104 22.4647 13.5422 22.4647 13.5422C22.4383 13.5676 22.1723 13.7897 22.0553 13.8712L21.9721 13.9293C21.8551 14.0108 21.7534 14.0704 21.7448 14.0627C21.7448 14.0627 15.2014 7.98508 15.0923 7.9211Z" fill="url(#paint1_linear_208_177)"/>
    <path d="M8.83969 14.5752C8.83969 14.5752 7.35458 15.942 6.55612 16.9235C5.75767 17.9054 5.64586 18.5016 5.64586 18.5016C5.50025 18.7691 5.33024 19.2228 5.2661 19.5143L5.25366 19.571C5.18955 19.8629 5.06026 20.2261 5.00729 20.839C4.95429 21.4519 5.04173 22.0222 5.04173 22.0222C5.1774 23.1513 5.8354 24.018 5.8354 24.018C5.8354 24.018 6.48931 25.0185 7.59763 25.7318C8.70592 26.4455 10.3106 26.9541 10.3106 26.9541C10.3106 26.9541 10.8883 27.1642 11.5773 27.2849C12.2662 27.406 13.0663 27.4375 13.0663 27.4375C13.0663 27.4375 14.768 27.5545 16.1326 27.4423C17.4971 27.3299 18.5246 26.9886 18.5246 26.9886C18.8494 26.9196 19.3623 26.7706 19.6702 26.6553L20.2535 26.4376C20.5614 26.3225 21.0451 26.1081 21.3338 25.9588L23.3053 24.9397C24.4211 24.2321 24.4645 24.1386 25.2745 23.3992C26.0845 22.6595 26.5451 21.9815 26.5451 21.9815C26.5451 21.9815 26.9757 21.5169 27.4203 20.851C27.8647 20.1847 27.8602 20.1163 28.2235 19.3565C28.5868 18.5972 28.8728 17.8123 28.8728 17.8123C28.8728 17.8123 27.2805 19.2733 26.1764 20.0908C25.7069 20.4384 25.4491 20.5918 25.4491 20.5918C25.4491 20.5918 24.7296 21.0044 24.1146 21.2421C23.5603 21.4559 23.3109 21.4973 23.0388 21.5486C22.7854 21.5966 22.5148 21.6576 21.8949 21.7434C21.1579 21.8456 20.5825 21.8925 20.5825 21.8925C20.5825 21.8925 20.0925 21.9292 19.6017 21.8852C18.4511 21.7819 18.3008 21.7616 17.4323 21.4995C16.5638 21.237 15.8411 20.7448 15.8411 20.7448C15.8411 20.7448 14.6835 20.0494 13.9893 19.4347C13.2951 18.82 13.1655 18.744 12.3082 17.9425C11.4509 17.1413 11.1737 16.7723 10.2673 15.9547C9.36096 15.1375 8.83969 14.5752 8.83969 14.5752Z" fill="url(#paint2_linear_208_177)"/>
    <path d="M49.8888 21.503C52.6001 21.503 54.9462 20.0019 56.1086 17.809L53.5106 16.4874C52.85 17.764 51.5072 18.6141 49.8888 18.6141C47.5879 18.6141 45.8343 16.8693 45.8343 14.608C45.8343 12.3472 47.5879 10.6005 49.8888 10.6005C51.5072 10.6005 52.85 11.4507 53.5106 12.7273L56.1086 11.4057C54.9462 9.21275 52.6001 7.71167 49.8888 7.71167C46.0171 7.71167 42.8728 10.8011 42.8728 14.608C42.8728 18.4131 46.0171 21.503 49.8888 21.503Z" fill="#347791"/>
    <path d="M62.4851 21.5029C65.5375 21.5029 67.543 19.5322 67.543 16.8459C67.543 14.1599 65.5375 12.1892 62.4851 12.1892C59.4327 12.1892 57.4055 14.1599 57.4055 16.8459C57.4055 19.5322 59.4327 21.5029 62.4851 21.5029ZM62.4851 18.9726C61.2316 18.9511 60.3211 18.0545 60.3211 16.8459C60.3211 15.6376 61.2316 14.7406 62.4851 14.7195C63.7149 14.7406 64.6492 15.6376 64.6492 16.8459C64.6492 18.0545 63.7149 18.9511 62.4851 18.9726Z" fill="#347791"/>
    <path d="M71.1181 10.8693C71.983 10.8693 72.7127 10.1518 72.7127 9.30208C72.7127 8.4285 71.983 7.73486 71.1181 7.73486C70.2516 7.73486 69.5232 8.4285 69.5232 9.30208C69.5232 10.1518 70.2516 10.8693 71.1181 10.8693ZM69.6603 21.3233H72.5525V12.3686H69.6603V21.3233Z" fill="#347791"/>
    <path d="M80.8215 12.1892C79.7738 12.1892 78.8617 12.6822 78.2251 13.4658V12.3687H75.3096V21.3234H78.2251V16.1306C78.2251 15.3236 78.9073 14.7195 79.7504 14.7195C80.5931 14.7195 81.1863 15.3236 81.1863 16.1306V21.3234H84.0781V15.6587C84.0781 13.6899 82.6203 12.1892 80.8215 12.1892Z" fill="#347791"/>
    <path d="M90.7974 21.503C93.3501 21.503 95.5135 20.0253 95.5135 17.5184C95.5135 12.5478 89.2266 13.7799 89.2266 11.4506C89.2266 10.69 89.8175 10.3315 90.5475 10.3315C91.3209 10.3315 92.0962 10.7566 92.7787 11.4952L94.7841 9.61444C93.782 8.47367 92.2552 7.71167 90.5694 7.71167C88.4053 7.71167 86.1957 8.98829 86.1957 11.6747C86.1957 16.2418 92.507 15.1442 92.507 17.495C92.507 18.234 91.8685 18.7271 90.8212 18.7271C89.5676 18.7271 88.5874 18.033 88.0877 16.9804L85.6047 18.5031C86.4931 20.1814 88.4053 21.503 90.7974 21.503Z" fill="#347791"/>
    <path d="M106.651 16.8246C106.651 14.0253 104.692 12.1675 101.754 12.1675C98.8149 12.1675 96.7424 14.0468 96.7424 16.8457C96.7424 19.645 98.7928 21.5028 101.845 21.5028C104.372 21.5028 106.059 20.1812 106.514 18.2339H103.712C103.462 18.9509 102.802 19.376 101.8 19.376C100.479 19.376 99.7948 18.5924 99.6818 17.3158H106.651V16.8246ZM101.8 14.3604C102.779 14.3604 103.349 14.8089 103.645 15.5925H99.8619C100.16 14.8304 100.774 14.3604 101.8 14.3604Z" fill="#347791"/>
    <path d="M114.19 12.1892C113.143 12.1892 112.231 12.6822 111.594 13.4658V12.3687H108.678V21.3234H111.594V16.1306C111.594 15.3236 112.276 14.7195 113.119 14.7195C113.962 14.7195 114.555 15.3236 114.555 16.1306V21.3234H117.447V15.6587C117.447 13.6899 115.989 12.1892 114.19 12.1892Z" fill="#347791"/>
    <path d="M126.421 5.98828V13.1523C125.739 12.5477 124.872 12.1892 123.825 12.1892C121.296 12.1892 119.314 14.2494 119.314 16.8458C119.314 19.4426 121.296 21.5029 123.825 21.5029C124.872 21.5029 125.739 21.1444 126.421 20.5398V21.345L129.315 21.3234V5.98828H126.421ZM124.394 18.9726C123.186 18.9726 122.231 18.0329 122.231 16.8458C122.231 15.6587 123.186 14.7195 124.394 14.7195C125.579 14.7195 126.558 15.6587 126.558 16.8458C126.558 18.0329 125.579 18.9726 124.394 18.9726Z" fill="#347791"/>
    <path d="M141.273 16.8246C141.273 14.0253 139.313 12.1675 136.376 12.1675C133.437 12.1675 131.364 14.0468 131.364 16.8457C131.364 19.645 133.415 21.5028 136.467 21.5028C138.994 21.5028 140.68 20.1812 141.137 18.2339H138.334C138.084 18.9509 137.424 19.376 136.421 19.376C135.101 19.376 134.416 18.5924 134.303 17.3158H141.273V16.8246ZM136.421 14.3604C137.401 14.3604 137.971 14.8089 138.266 15.5925H134.484C134.781 14.8304 135.396 14.3604 136.421 14.3604Z" fill="#347791"/>
    <path d="M148.767 12.1892C147.696 12.1892 146.807 12.7272 146.217 13.6003V12.3687H143.3V21.3234H146.217V17.0469C146.217 15.5692 147.24 14.7195 148.676 14.7195C149.017 14.7195 149.314 14.7641 149.519 14.809V12.2787C149.314 12.2126 149.041 12.1892 148.767 12.1892Z" fill="#347791"/>
    <defs>
        <linearGradient id="paint0_linear_208_177" x1="12.9339" y1="8.01423" x2="-1.69301" y2="24.9629" gradientUnits="userSpaceOnUse">
            <stop stop-color="#092C3E"/>
            <stop offset="0.547521" stop-color="#00E8EB"/>
            <stop offset="1" stop-color="#8BFFFF"/>
        </linearGradient>
        <linearGradient id="paint1_linear_208_177" x1="23.4086" y1="14.2505" x2="3.30915" y2="-2.82742" gradientUnits="userSpaceOnUse">
            <stop stop-color="#092C3E"/>
            <stop offset="0.547521" stop-color="#00E8EB"/>
            <stop offset="1" stop-color="#8BFFFF"/>
        </linearGradient>
        <linearGradient id="paint2_linear_208_177" x1="5.06678" y1="21.0399" x2="28.8731" y2="21.0399" gradientUnits="userSpaceOnUse">
            <stop stop-color="#092C3E"/>
            <stop offset="0.547521" stop-color="#00E8EB"/>
            <stop offset="1" stop-color="#8BFFFF"/>
        </linearGradient>
    </defs>
</svg>
