<svg width="22" height="22" viewBox="0 0 22 22" fill="none" xmlns="http://www.w3.org/2000/svg">
    <g clip-path="url(#clip0_208_339)">
        <path d="M21.4859 11.2057C21.4859 10.3044 21.4127 9.64668 21.2545 8.9646H10.9622V13.0328H17.0035C16.8818 14.0437 16.224 15.5663 14.7624 16.5894L14.7419 16.7256L17.9961 19.2466L18.2216 19.2691C20.2922 17.3568 21.4859 14.5431 21.4859 11.2057Z" fill="#4285F4"/>
        <path d="M10.9621 21.9245C13.9219 21.9245 16.4066 20.95 18.2215 19.2692L14.7623 16.5895C13.8367 17.2351 12.5942 17.6857 10.9621 17.6857C8.06325 17.6857 5.60286 15.7735 4.7258 13.1304L4.59724 13.1413L1.21344 15.76L1.16919 15.8831C2.97185 19.464 6.67465 21.9245 10.9621 21.9245Z" fill="#34A853"/>
        <path d="M4.72589 13.1303C4.49447 12.4482 4.36053 11.7174 4.36053 10.9622C4.36053 10.207 4.49447 9.47621 4.71371 8.79413L4.70758 8.64886L1.28137 5.98804L1.16927 6.04136C0.426313 7.52737 0 9.19609 0 10.9622C0 12.7283 0.426313 14.397 1.16927 15.883L4.72589 13.1303Z" fill="#FBBC05"/>
        <path d="M10.9621 4.23869C13.0206 4.23869 14.4091 5.12785 15.2008 5.87089L18.2946 2.85018C16.3945 1.08405 13.9219 0 10.9621 0C6.67465 0 2.97185 2.46039 1.16919 6.04135L4.71362 8.79412C5.60286 6.15102 8.06325 4.23869 10.9621 4.23869Z" fill="#EB4335"/>
    </g>
    <defs>
        <clipPath id="clip0_208_339">
            <rect width="22" height="22" fill="white"/>
        </clipPath>
    </defs>
</svg>
