<svg width="100" height="100" viewBox="0 0 100 100" fill="none" xmlns="http://www.w3.org/2000/svg">
<circle cx="50" cy="50" r="48.5" stroke="#F97878" stroke-width="3"/>
<path d="M46.3931 29.1753C46.3425 28.5844 46.3981 27.9876 46.5564 27.4234C46.7146 26.8592 46.9719 26.3401 47.3118 25.8997C47.6516 25.4592 48.0664 25.1072 48.5295 24.8663C48.9925 24.6253 49.4934 24.5009 50 24.5009C50.5066 24.5009 51.0075 24.6253 51.4705 24.8663C51.9336 25.1072 52.3484 25.4592 52.6882 25.8997C53.0281 26.3401 53.2854 26.8592 53.4436 27.4234C53.6019 27.9876 53.6575 28.5844 53.6069 29.1753L52.2004 56.1628C52.146 56.8028 51.8908 57.3962 51.4841 57.8278C51.0775 58.2595 50.5485 58.4985 50 58.4985C49.4515 58.4985 48.9225 58.2595 48.5159 57.8278C48.1092 57.3962 47.854 56.8028 47.7996 56.1628L46.3931 29.1753ZM46.375 67.0003C46.375 65.8731 46.7569 64.7921 47.4367 63.9951C48.1166 63.1981 49.0386 62.7503 50 62.7503C50.9614 62.7503 51.8834 63.1981 52.5633 63.9951C53.2431 64.7921 53.625 65.8731 53.625 67.0003C53.625 68.1275 53.2431 69.2085 52.5633 70.0055C51.8834 70.8026 50.9614 71.2503 50 71.2503C49.0386 71.2503 48.1166 70.8026 47.4367 70.0055C46.7569 69.2085 46.375 68.1275 46.375 67.0003Z" fill="#F97878"/>
</svg>
